<svg width="32" height="32" viewBox="0 0 32 32" fill="none" xmlns="http://www.w3.org/2000/svg">
  <rect width="32" height="32" rx="6" fill="black"/>
  <path d="M10 12L11 25C11.1 26 11.75 26.5 12.5 26.5H19.5C20.25 26.5 20.9 26 21 25L22 12H10Z" fill="white"/>
  <path d="M12 12C12 12 12 9 14 7.5C15 6.75 16 6.75 16 6.75" stroke="white" stroke-width="1.5" stroke-linecap="round"/>
  <path d="M20 12C20 12 20 9 18 7.5C17 6.75 16 6.75 16 6.75" stroke="white" stroke-width="1.5" stroke-linecap="round"/>
  <path d="M14.5 16C14.5 15 15 14.5 15.75 14.5C16.5 14.5 17 15 17 15.5C17 16 16.5 16.5 15.75 16.75C15 17 14 17.5 14 18.5C14 19.5 15 20 16 20C17 20 17.5 19.5 17.5 18.5" stroke="black" stroke-width="1.5" stroke-linecap="round"/>
</svg>
