<svg width="64" height="64" viewBox="0 0 64 64" fill="none" xmlns="http://www.w3.org/2000/svg">
  <!-- Background Circle -->
  <circle cx="32" cy="32" r="32" fill="black"/>
  
  <!-- Shopping Bag Shape -->
  <path d="M20 24L22 50C22.2 52 23.5 53 25 53H39C40.5 53 41.8 52 42 50L44 24H20Z" fill="white"/>
  
  <!-- Bag Handle Left -->
  <path d="M24 24C24 24 24 18 28 15C30 13.5 32 13.5 32 13.5" stroke="white" stroke-width="2.5" stroke-linecap="round" fill="none"/>
  
  <!-- Bag Handle Right -->
  <path d="M40 24C40 24 40 18 36 15C34 13.5 32 13.5 32 13.5" stroke="white" stroke-width="2.5" stroke-linecap="round" fill="none"/>
  
  <!-- Stylish S Letter -->
  <path d="M29 32C29 30 30 29 31.5 29C33 29 34 30 34 31C34 32 33 33 31.5 33.5C30 34 28 35 28 37C28 39 30 40 32 40C34 40 35 39 35 37" stroke="black" stroke-width="2.5" stroke-linecap="round" fill="none"/>
</svg>
